HIERARCHY
ROOT root
{
	OFFSET	0	13.1	24.9
	CHANNELS 6  Xposition Yposition Zposition Xrotation Yrotation Zrotation
	JOINT spine_1
	{
		OFFSET	0	9.99999	0
		CHANNELS 3  Xrotation Yrotation Zrotation
		JOINT spine_2
		{
			OFFSET	0	112	-10
			CHANNELS 3  Xrotation Yrotation Zrotation
			JOINT spine_3
			{
				OFFSET	0	206.5	19.3
				CHANNELS 3  Xrotation Yrotation Zrotation
				JOINT spine_4
				{
					OFFSET	0	110.4	14.6
					CHANNELS 3  Xrotation Yrotation Zrotation
					JOINT neck_1
					{
						OFFSET	0	71.8	-50.3
						CHANNELS 3  Xrotation Yrotation Zrotation
						JOINT neck_2
						{
							OFFSET	0	86.2	-25.8
							CHANNELS 3  Xrotation Yrotation Zrotation
							JOINT head_ee
							{
								OFFSET	0	179.8	-8.7
								CHANNELS 3  Xrotation Yrotation Zrotation
								End Site
								{
									OFFSET	1	0	0
								}
							}
						}
					}
					JOINT left_clavicle
					{
						OFFSET	-43.2	22.4	-70.8
						CHANNELS 3  Xrotation Yrotation Zrotation
						JOINT left_shoulder
						{
							OFFSET	-93.9	-5.79999	48.7
							CHANNELS 3  Xrotation Yrotation Zrotation
							JOINT left_elbow
							{
								OFFSET	-291.4	-30.8	15.2
								CHANNELS 3  Xrotation Yrotation Zrotation
								JOINT left_lowarm_twist
								{
									OFFSET	-110.7	-3.89999	13.6
									CHANNELS 3  Xrotation Yrotation Zrotation
									JOINT left_hand
									{
										OFFSET	-110.7	-3.89999	13.6
										CHANNELS 3  Xrotation Yrotation Zrotation
										JOINT left_ee
										{
											OFFSET	-80.8	-5.10001	12.1
											CHANNELS 3  Xrotation Yrotation Zrotation
											End Site
											{
												OFFSET	1	0	0
											}
										}
									}
								}
							}
						}
					}
					JOINT right_clavicle
					{
						OFFSET	43.2	22.4	-70.8
						CHANNELS 3  Xrotation Yrotation Zrotation
						JOINT right_shoulder
						{
							OFFSET	93.9	-5.79999	48.7
							CHANNELS 3  Xrotation Yrotation Zrotation
							JOINT right_elbow
							{
								OFFSET	291.4	-30.8	15.2
								CHANNELS 3  Xrotation Yrotation Zrotation
								JOINT right_lowarm_twist
								{
									OFFSET	110.7	-3.89999	13.6
									CHANNELS 3  Xrotation Yrotation Zrotation
									JOINT right_hand
									{
										OFFSET	110.7	-3.89999	13.6
										CHANNELS 3  Xrotation Yrotation Zrotation
										JOINT right_ee
										{
											OFFSET	80.8	-5.10001	12.1
											CHANNELS 3  Xrotation Yrotation Zrotation
											End Site
											{
												OFFSET	1	0	0
											}
										}
									}
								}
							}
						}
					}
				}
			}
		}
	}
	JOINT left_hip
	{
		OFFSET	-82.8	-127.5	0.300001
		CHANNELS 3  Xrotation Yrotation Zrotation
		JOINT left_knee
		{
			OFFSET	-28.2	-396.7	2.2
			CHANNELS 3  Xrotation Yrotation Zrotation
			JOINT left_ankle
			{
				OFFSET	-11.7	-411.3	35.4
				CHANNELS 3  Xrotation Yrotation Zrotation
				JOINT left_toes
				{
					OFFSET	0	-60	-88.6
					CHANNELS 3  Xrotation Yrotation Zrotation
					JOINT left_foot_ee
					{
						OFFSET	-22.5	-16.5	-42.2
						CHANNELS 3  Xrotation Yrotation Zrotation
						End Site
						{
							OFFSET	1	0	0
						}
					}
				}
			}
		}
	}
	JOINT right_hip
	{
		OFFSET	82.8	-127.5	0.300001
		CHANNELS 3  Xrotation Yrotation Zrotation
		JOINT right_knee
		{
			OFFSET	28.2	-396.7	2.2
			CHANNELS 3  Xrotation Yrotation Zrotation
			JOINT right_ankle
			{
				OFFSET	11.7	-411.3	35.4
				CHANNELS 3  Xrotation Yrotation Zrotation
				JOINT right_toes
				{
					OFFSET	0	-60	-88.6
					CHANNELS 3  Xrotation Yrotation Zrotation
					JOINT right_foot_ee
					{
						OFFSET	22.5	-16.5	-42.2
						CHANNELS 3  Xrotation Yrotation Zrotation
						End Site
						{
							OFFSET	1	0	0
						}
					}
				}
			}
		}
	}
}
MOTION
Frames: 16
Frame Time: 0.02
1902.84 680.749 -1535.37 -15.5828 54.5869 10.7469 4.6743 0.447349 3.76824 4.68217 0.206836 3.78903 4.68978 -0.285995 3.78389 4.66995 0.31475 3.78161 -13.8673 13.2169 -2.88947 -14.4318 26.9603 1.5836 -0.0 0.0 -0.0 -7.87193 3.98146 -14.498 2.45195 -4.03097 53.9125 92.0554 -87.9809 90.0363 37.1693 -0.210275 -4.66126 -0.151767 -6.94642 -3.9745 -0.0 0.0 -0.0 9.06258 -5.397 -17.4705 -56.8852 50.6238 -57.2534 0.210061 5.94085 -0.0109001 60.5827 1.82608 7.16142 -5.18472 -17.0081 25.684 0.0 0.0 0.0 -157.89 83.54 146.761 -1.23034 0.0487008 0.182528 37.2867 -29.7761 -5.62863 -11.8538 0.0 0.0 -0.0 0.0 -0.0 45.0332 27.1228 -22.2334 1.56557 0.0676275 0.230712 -3.2594 -8.60261 -0.480429 10.4349 -0.0 -0.0 0.0 0.0 0.0 
1893.15 680.167 -1536.55 -15.2589 53.9738 10.8204 4.75879 0.438548 3.65771 4.76621 0.20507 3.67817 4.77349 -0.267979 3.67413 4.75479 0.315243 3.67038 -13.6069 13.3702 -3.20625 -14.1645 27.4402 1.27066 -0.0 0.0 -0.0 -7.89074 3.86369 -14.5691 2.71479 -4.18628 54.248 118.561 -87.7029 116.524 37.6 -0.230353 -4.71254 -0.0313641 -6.3828 -2.91981 -0.0 0.0 -0.0 9.34775 -5.25307 -18.0344 -56.4194 50.6977 -56.9307 0.19813 5.60563 -0.00969996 60.1934 1.79117 7.12574 -5.28441 -16.9303 26.4303 0.0 0.0 0.0 -158.35 83.8401 147.529 -0.745215 0.0299672 0.110435 36.2181 -28.763 -5.44937 -12.2946 0.0 0.0 -0.0 0.0 -0.0 43.6713 27.4875 -21.8963 3.33375 0.15157 0.488998 -3.97744 -8.33636 -0.587112 10.2686 -0.0 -0.0 0.0 0.0 0.0 
1877.08 677.455 -1537.87 -16.3771 54.6086 11.604 4.78651 0.457048 3.58574 4.79363 0.228104 3.60752 4.80229 -0.234204 3.60713 4.78429 0.338035 3.59889 -12.7752 13.0797 -4.93256 -13.2307 27.9481 -0.696092 -0.0 0.0 -0.0 -7.83225 4.54922 -14.2568 2.78105 -4.30515 54.2942 132.279 -87.2737 130.229 36.6464 -0.186418 -4.5988 -0.0829425 -7.01046 -3.53634 -0.0 0.0 -0.0 9.38468 -5.15005 -18.1135 -56.4516 50.274 -56.463 0.200707 5.67808 -0.00995332 61.7619 1.93327 7.26804 -5.41444 -18.3288 26.2913 0.0 0.0 0.0 -156.626 83.5581 145.426 -1.39376 0.054874 0.206848 37.2485 -28.9016 -5.5663 -11.7905 0.0 0.0 -0.0 0.0 -0.0 43.7193 27.3943 -21.3568 2.61462 0.116467 0.384258 -4.43396 -8.09012 -0.655097 10.0749 -0.0 -0.0 0.0 0.0 0.0 
1861.68 677.092 -1539.52 -17.0783 54.7311 12.2751 4.77876 0.475362 3.49736 4.78553 0.251994 3.52048 4.7956 -0.19975 3.52383 4.77845 0.358928 3.5112 -12.8285 12.9928 -4.2699 -13.2846 27.3704 -0.0782599 -0.0 0.0 -0.0 -7.93417 5.14644 -14.2848 2.58251 -3.76105 54.7013 141.918 -86.7307 139.855 36.7232 -0.189889 -4.60799 0.028176 -8.09653 -3.24852 -0.0 0.0 -0.0 9.43235 -4.97662 -18.2186 -56.2875 50.2147 -56.1078 0.204253 5.77772 -0.0103071 61.9789 1.95324 7.28742 -5.35172 -17.7872 26.2641 0.0 0.0 0.0 -157.278 83.3548 145.703 -2.50364 0.0949576 0.372462 37.1602 -28.8908 -5.55647 -11.3368 0.0 0.0 -0.0 0.0 -0.0 43.5084 27.5719 -20.9722 1.41083 0.0606624 0.20799 -4.84195 -7.51791 -0.716025 10.4972 -0.0 -0.0 0.0 0.0 0.0 
1843.76 676.644 -1536.41 -18.035 54.5805 12.4009 4.74833 0.50583 3.53813 4.75525 0.279811 3.5631 4.76717 -0.179332 3.56956 4.7496 0.3863 3.55314 -13.2238 12.7414 -4.8898 -13.6947 27.275 -0.650028 -0.0 0.0 -0.0 -7.93382 6.07413 -14.0113 2.64463 -3.38408 54.8812 147.855 -86.2115 145.781 36.5338 -0.181359 -4.58533 0.0271823 -8.85229 -3.57788 -0.0 0.0 -0.0 9.49291 -4.45173 -18.3731 -56.4808 50.3338 -55.3898 0.214871 6.07587 -0.0114036 62.903 2.03908 7.36911 -5.37772 -18.7104 25.7542 0.0 0.0 0.0 -157.128 83.0271 145.374 -5.07993 0.175571 0.759595 37.2555 -28.7773 -5.55893 -10.7825 0.0 0.0 -0.0 0.0 -0.0 44.0237 27.8514 -20.0535 -3.67946 -0.133911 -0.548709 -5.75154 -7.24187 -0.852042 11.0674 -0.0 -0.0 0.0 0.0 0.0 
1825.03 679.337 -1538.57 -18.353 55.1887 12.6148 4.77518 0.508595 3.4859 4.78189 0.285888 3.51116 4.79404 -0.164973 3.51891 4.77698 0.392494 3.50086 -12.7367 12.5875 -4.83506 -13.1507 26.9534 -0.778574 -0.0 0.0 -0.0 -7.9344 7.05968 -13.7184 1.56463 -4.38196 55.7057 153.87 -85.4262 151.78 33.5145 -0.0555788 -4.22047 0.173883 -9.158 -2.71642 -0.0 0.0 -0.0 9.65508 -2.78448 -18.801 -55.7774 50.8217 -56.0373 0.257597 7.27214 -0.0163694 66.6724 2.40259 7.68775 -5.74813 -23.622 24.4031 0.0 0.0 0.0 -145.403 82.5815 133.351 -1.25019 0.0494547 0.185482 36.0053 -28.9928 -5.44143 -12.6372 0.0 0.0 -0.0 0.0 -0.0 44.9911 28.7374 -20.4074 -6.56418 -0.214079 -0.984113 -11.476 -9.98693 -1.71452 12.6518 -0.0 -0.0 0.0 0.0 0.0 
1808.41 680.256 -1540.15 -18.1244 55.452 12.5982 4.79954 0.451035 3.3571 4.80577 0.236625 3.37896 4.81471 -0.19579 3.38157 4.79891 0.340413 3.3701 -13.4547 12.6724 -5.03644 -13.9406 27.2307 -0.752484 -0.0 0.0 -0.0 -7.93681 7.43165 -13.611 0.418207 -5.49919 56.4032 151.091 -85.8316 149.009 31.5429 0.016094 -3.9789 0.124382 -10.9577 -3.81978 -0.0 0.0 -0.0 9.90289 -0.991027 -19.4047 -55.4409 51.6474 -55.9884 0.302801 8.53088 -0.0225841 67.7978 2.51512 7.7782 -5.78313 -24.7163 23.7462 0.0 0.0 0.0 -138.08 81.5943 124.915 1.52877 -0.0659657 -0.225309 33.5786 -27.8178 -5.1024 -13.5553 0.0 0.0 -0.0 0.0 -0.0 45.9624 28.6015 -21.0039 -10.3297 -0.285563 -1.55741 -9.03181 -10.9911 -1.34578 11.6037 -0.0 -0.0 0.0 0.0 0.0 
1791.01 681.829 -1544.28 -18.1238 55.0216 12.7965 4.67653 0.568425 3.21129 4.68219 0.36304 3.24091 4.69834 -0.0592197 3.26062 4.6838 0.456205 3.22913 -13.4777 12.9859 -4.63955 -13.9944 27.5837 -0.258525 -0.0 0.0 -0.0 -8.25122 7.97679 -14.0436 -0.976719 -5.88759 56.9359 151.179 -85.8201 149.097 30.0988 0.0632916 -3.80049 0.184808 -12.5133 -4.07653 -0.0 0.0 -0.0 9.80285 -0.28894 -19.2351 -55.3774 52.1944 -55.5973 0.341013 9.58852 -0.0286013 69.6078 2.69977 7.91902 -5.90087 -27.0943 22.5361 0.0 0.0 0.0 -134.497 81.3297 121.609 3.18772 -0.144335 -0.467764 33.5084 -26.7376 -5.03301 -14.9064 0.0 0.0 -0.0 0.0 -0.0 45.9658 29.1316 -21.463 -12.0623 -0.305765 -1.82249 -7.13192 -9.76235 -1.05893 10.3728 -0.0 -0.0 0.0 0.0 0.0 
1772.66 684.46 -1547.72 -17.6218 54.9678 12.4766 4.62959 0.578574 3.14692 4.63502 0.377258 3.17732 4.6518 -0.0394684 3.19937 4.63782 0.466051 3.16553 -13.0997 13.0712 -4.47027 -13.5877 27.6437 -0.169639 -0.0 0.0 -0.0 -8.26094 7.75633 -14.131 -1.66661 -6.31155 57.6858 139.631 -86.8865 137.572 27.406 0.139217 -3.46493 0.148648 -12.0104 -4.10573 -0.0 0.0 -0.0 9.93576 1.00488 -19.5673 -55.0068 52.79 -55.7495 0.335033 9.42344 -0.0276138 70.9102 2.83536 8.01672 -6.06315 -29.2074 21.7433 0.0 0.0 0.0 -133.185 81.1581 120.306 4.38201 -0.205094 -0.640883 33.6525 -24.8161 -4.9473 -15.8603 0.0 0.0 -0.0 0.0 -0.0 43.3372 30.315 -20.2686 -11.3616 -0.298561 -1.71522 0.188224 -7.5715 0.0275357 10.7286 -0.0 -0.0 0.0 0.0 0.0 
1755.25 689.997 -1547.97 -17.5392 54.7476 11.9267 4.64562 0.690748 3.21011 4.65122 0.485191 3.2475 4.67441 0.059881 3.28296 4.65984 0.577338 3.2324 -12.6258 13.503 -4.82051 -13.1011 28.6818 -0.487416 -0.0 0.0 -0.0 -8.08354 8.53458 -13.5519 -3.21648 -6.28355 58.3286 133.348 -87.2263 131.297 27.764 0.130032 -3.50975 0.305102 -16.3914 -4.9268 -0.0 0.0 -0.0 10.3649 1.61603 -20.4905 -54.4081 52.5982 -55.7587 0.339874 9.55708 -0.0284118 72.3695 2.98987 8.12251 -5.93956 -29.1028 21.1036 0.0 0.0 0.0 -118.255 82.9301 104.354 0.574729 -0.0240925 -0.0849048 33.7227 -27.198 -5.08281 -16.201 0.0 0.0 -0.0 0.0 -0.0 42.4195 31.0241 -19.5197 -12.47 -0.309353 -1.88493 1.79466 -8.36265 0.261472 9.60673 -0.0 -0.0 0.0 0.0 0.0 
1736.01 687.34 -1551.24 -17.2647 54.5918 11.4673 4.68246 0.739372 3.2154 4.68805 0.533381 3.25587 4.71399 0.108938 3.29743 4.69937 0.628062 3.23896 -12.5962 13.5008 -4.74157 -13.0686 28.6282 -0.421026 -0.0 0.0 -0.0 -8.28464 8.91967 -13.8101 -3.3954 -5.75846 58.6577 115.488 -87.7649 113.453 27.197 0.144448 -3.43875 0.258963 -14.2326 -4.31217 -0.0 0.0 -0.0 10.4166 2.30636 -20.6287 -54.906 53.2877 -54.4437 0.440986 12.323 -0.0476067 72.9397 3.05097 8.16277 -5.74036 -28.9594 20.0559 0.0 0.0 0.0 -122.448 80.4839 108.798 3.70998 -0.17046 -0.543621 33.4448 -25.5335 -4.96119 -16.8147 0.0 0.0 -0.0 0.0 -0.0 41.5273 32.3241 -19.6655 -10.8848 -0.292908 -1.64227 2.69735 -5.9954 0.392378 9.65915 -0.0 -0.0 0.0 0.0 0.0 
1717.32 689.937 -1556.91 -16.7031 54.636 11.4508 4.67658 0.808688 3.2183 4.68214 0.602373 3.26317 4.7121 0.176419 3.31356 4.69746 0.697242 3.24424 -12.1019 13.9459 -4.60489 -12.5571 29.3838 -0.283639 -0.0 0.0 -0.0 -8.11323 9.59479 -13.2757 -2.9179 -5.49569 58.8574 89.2899 -87.982 87.2726 22.0777 0.242596 -2.79239 -0.207122 -7.36929 -4.53003 -0.0 0.0 -0.0 10.7571 2.25093 -21.348 -54.7315 53.7184 -53.8289 0.449577 12.5555 -0.0494573 74.5432 3.22491 8.27274 -5.68709 -29.2026 19.5505 0.0 0.0 0.0 -125.153 80.3758 111.821 4.55848 -0.214378 -0.666357 33.0482 -20.7788 -4.69802 -16.9178 0.0 0.0 -0.0 0.0 -0.0 36.8588 36.3711 -18.7748 -4.03975 -0.145121 -0.602866 7.97502 -5.28074 1.14258 4.22458 -0.0 -0.0 0.0 0.0 0.0 
1703.3 689.478 -1561.13 -16.2676 53.2771 10.6175 4.67926 0.81305 3.27018 4.68501 0.60343 3.31522 4.71543 0.170951 3.3653 4.70031 0.700001 3.2962 -11.5706 14.6084 -5.61905 -12.0035 31.2799 -1.20593 -0.0 0.0 -0.0 -8.64848 10.5783 -13.9494 -4.2666 -5.62277 59.2771 58.1662 -87.6253 56.1705 24.5116 0.20314 -3.10076 -0.278267 -6.27188 -4.54184 -0.0 0.0 -0.0 11.1709 3.02965 -22.2687 -53.7494 54.2008 -52.9318 0.469564 13.0948 -0.053894 73.6995 3.13301 8.21549 -5.75644 -28.7431 20.325 0.0 0.0 0.0 -119.09 79.9936 105.534 4.39339 -0.20569 -0.642526 35.1309 -22.5949 -4.9979 -16.8966 0.0 0.0 -0.0 0.0 -0.0 32.876 37.0071 -16.9677 1.76454 0.0766743 0.259901 7.56474 -4.97539 1.08554 0.670418 -0.0 -0.0 0.0 0.0 0.0 
1683.03 691.986 -1565.48 -15.7511 53.1454 9.67311 4.6696 0.796676 3.30014 4.67547 0.585186 3.34408 4.70506 0.148491 3.39159 4.68966 0.681968 3.32571 -10.1529 15.0066 -7.10852 -10.386 33.0013 -3.00308 -0.0 0.0 -0.0 -8.65763 10.5244 -13.9844 -5.28975 -5.5915 60.082 23.1672 -84.8826 21.2323 22.9595 0.229815 -2.9043 -0.452519 -3.9361 -4.71709 -0.0 0.0 -0.0 11.533 4.08463 -23.1001 -52.6658 55.0578 -52.636 0.48081 13.3973 -0.0564708 74.328 3.2014 8.25827 -5.63188 -28.3342 19.9232 0.0 0.0 0.0 -117.623 80.581 103.688 3.59369 -0.164582 -0.52675 36.3117 -22.276 -5.10411 -16.8733 0.0 0.0 -0.0 0.0 -0.0 29.8033 38.3399 -15.3417 4.2161 0.196437 0.616909 9.33418 -3.17392 1.33438 -2.06837 0.0 0.0 0.0 0.0 0.0 
1659.25 697.233 -1573.99 -14.2636 52.3638 8.04489 4.55953 0.854815 3.33656 4.5655 0.640894 3.38412 4.5989 0.192286 3.43884 4.58314 0.732663 3.36546 -9.32241 15.9565 -6.60793 -9.49262 34.4445 -2.53045 -0.0 0.0 -0.0 -8.70807 13.2216 -13.1576 -6.80987 -4.97941 60.663 16.9166 -83.0962 15.0152 21.9854 0.243835 -2.78066 -0.653632 -0.368273 -4.52879 -0.0 0.0 -0.0 11.654 4.14603 -23.3668 -50.5859 54.358 -53.6169 0.48523 13.5159 -0.0574993 74.8999 3.26402 8.29654 -5.57426 -28.6524 19.3343 0.0 0.0 0.0 -117.748 81.6487 104.5 3.20619 -0.145247 -0.47045 38.1683 -22.8426 -5.31399 -16.2824 0.0 0.0 -0.0 0.0 -0.0 27.329 39.3072 -15.1956 3.49714 0.159729 0.512735 11.9429 -5.17382 1.68756 -3.59106 0.0 0.0 0.0 0.0 0.0 
1648.62 703.073 -1574.46 -14.2132 51.6408 7.8429 4.64005 0.761257 3.54934 4.6469 0.53401 3.59052 4.6751 0.0639175 3.6294 4.65728 0.63594 3.57389 -9.14458 15.9372 -6.51054 -9.28939 34.3392 -2.50271 -0.0 0.0 -0.0 -8.85499 13.3359 -13.379 -8.01193 -4.32536 61.2437 12.9428 -81.0606 11.0787 18.7145 0.275496 -2.36412 -0.558232 3.08857 -2.39698 -0.0 0.0 -0.0 11.5703 4.15475 -23.1844 -50.2005 56.1006 -53.9121 0.475963 13.267 -0.0553532 74.0755 3.17386 8.24117 -5.2122 -27.8372 17.8585 0.0 0.0 0.0 -118.461 81.4288 105.417 3.4848 -0.159111 -0.510943 37.6317 -21.5001 -5.19898 -16.2113 0.0 0.0 -0.0 0.0 -0.0 25.9117 40.156 -14.3419 3.36677 0.153213 0.493797 13.8877 -4.59181 1.94871 -4.82863 0.0 0.0 0.0 0.0 0.0 
